# xmcd
#
# Track frame offsets:
#	150
#	14479
#	24593
#	52032
#
# Disc length: 1036 seconds
#
# Revision: 1
# Processed by: cddbd v1.5.2PL0 Copyright (c) Steve Scherf et al.
# Submitted via: audiograbber 1.83.01
#
DISCID=2d040a04
DTITLE=Six Feet Under - True Carnage 3 Track (Promo)
DYEAR=2001
DGENRE=Death
TTITLE0=Impulde To Disembowel
TTITLE1=The Day The Dead Walked
TTITLE2=One Bullet Left
TTITLE3=Daten-CD
EXTD=
EXTT0=
EXTT1=
EXTT2=
EXTT3=
PLAYORDER=
